<svg xmlns="http://www.w3.org/2000/svg" viewBox="0 0 2272 2272">
    <path fill="#000001" d="M0 0h2272v2272H0z"/>
    <g fill="#FFFFFF">
        <path d="M1139.3 100.4c-.4.7-4.6 4.7-9.3 8.7-4.7 4.1-9.6 8.5-11 9.7-1.4 1.3-7.2 6.4-13 11.5s-14.1 12.6-18.5 16.8c-4.4 4.1-9.6 8.8-11.5 10.3-1.9 1.6-11.3 10.5-20.8 19.7-9.5 9.3-17.4 16.9-17.6 16.9s-2.6 2.1-5.2 4.8c-2.7 2.6-10 9.4-16.3 15.2-6.2 5.8-18.3 17.9-26.9 27-8.5 9.1-21.4 22.6-28.6 30-7.2 7.5-17.1 17.9-21.9 23.2-4.9 5.3-10.3 11.2-12 13-1.8 1.9-7.7 8.5-13.2 14.8-5.5 6.2-12.7 14.4-16 18-10.5 11.7-17 19.4-21 24.7-2.2 2.9-4.2 5.3-4.6 5.3-.3 0-1.9 1.9-3.5 4.2-1.6 2.4-3.9 5.2-5.1 6.3-2.6 2.3-12.4 14.6-27.5 34.5-5.7 7.4-13 16.8-16.3 20.9-3.3 4-7.7 9.6-9.7 12.5-2.1 2.8-4.7 6.2-5.8 7.6-2.5 3.2-5.5 7.3-13.1 18.5-3.4 4.9-7.2 10.1-8.4 11.5s-5.1 6.8-8.6 12-7 10.1-7.7 10.9c-.7.7-2.2 3.1-3.3 5.2-1 2.1-2.3 3.9-2.8 3.9-.4 0-1.4 1.2-2.1 2.7-.8 1.6-2.2 3.7-3.1 4.8-1 1.1-5.4 7.8-9.8 15-4.4 7.1-8.9 14-9.8 15.2-2 2.3-9 13.4-21.3 33.8-4.3 7.1-10.9 17.9-14.6 24-3.7 6-10.3 18-14.7 26.5s-8.6 16.2-9.2 17c-2.2 2.7-34.8 66.6-42.2 82.6-1.7 3.8-6.7 14.8-11.1 24.4s-10.7 23.3-14 30.5c-3.3 7.1-10.3 24.7-15.6 39S581.2 863.8 579 869c-5.6 13.6-12 31.2-17.4 48.5-2.6 8.2-5.4 16.3-6.1 18-1.5 3.4-3.3 8.8-13.9 41.5-15.2 47.3-38.3 126.7-46.7 160.5-5 20.3-30.9 107.3-39.7 133.5-32.4 96.5-91.8 176.8-171.8 232.6-15.8 11-15.7 10.9-10.3 13.3 42.6 18.5 91.2 42.1 120.9 58.6 148.4 82.8 287.1 203 423.5 367 11 13.2 22.2 26.9 24.9 30.5 2.8 3.6 8 10.1 11.6 14.5 3.7 4.4 9.7 12.5 13.5 18s17.3 24.6 30 42.5c29.2 41.1 33.2 46.9 38.3 55.7 12.7 21.7 13.4 16.3 1.3-10.8-5.4-12.3-11.4-26-13.2-30.4-15.2-37.1-55.5-121.9-58.9-124-.6-.3-1-1.5-1-2.5 0-3.2-21.2-42.3-41.3-76-77.6-130.2-162.8-237.9-255.7-323-9.4-8.6-57.3-50.6-58.7-51.5-.1 0 3.9-8.2 8.9-18 18-35.3 29.4-63.1 58.3-142 47.5-129.4 55.2-149.4 77.8-201 20.8-47.7 41.7-90.6 57.5-118 2.5-4.4 6.3-11.5 8.4-15.7s5.6-10 7.8-12.9c2.1-2.9 4.2-6.6 4.6-8.3s1.9-4.6 3.5-6.6c1.5-1.9 3.5-5.1 4.3-7.2.9-2 2.1-4.2 2.9-5 .7-.7 3.6-5.1 6.4-9.8 5.3-9 13-21.5 17.8-29 1.6-2.5 3.9-6.5 5.2-9s4-6.4 6.1-8.7c2-2.3 5.3-6.8 7.2-10s5.3-8.3 7.5-11.3c2.3-3 5.6-8 7.5-11 3.2-5.1 11.7-16.9 13-18 .3-.3 7.5-9.7 15.8-21 8.4-11.3 17.4-22.9 20-25.9s7.3-8.7 10.4-12.8c3.2-4.1 8.2-10.2 11.2-13.6s6.9-8.2 8.8-10.6c1.8-2.4 5.1-6.2 7.3-8.5 2.2-2.2 5.5-6 7.5-8.2 7.4-8.6 28.7-32.3 36.9-40.9 14.6-15.3 48.4-49.7 51.6-52.4 1.7-1.4 9.1-8.4 16.5-15.6 7.4-7.1 22.3-20.7 33-30.1s23.8-21.1 29-25.9 14-12.2 19.5-16.3c5.5-4.2 12.8-10.4 16.2-13.8 3.4-3.5 8.1-7.5 10.5-9.1 2.4-1.5 7.7-5.5 11.8-8.8 16.5-13.3 19.7-15.5 23.2-15.5 3.6 0 9.1 3.3 16.2 9.5 3.6 3.2 14.7 11.5 15.4 11.5.4 0 2.4 1.6 4.3 3.6 1.8 2 10.6 9.5 19.4 16.7 8.7 7.2 18 15 20.6 17.2 2.5 2.2 7.3 6.4 10.7 9.3 3.4 3 7.4 6.3 8.9 7.5s3.7 3 4.8 4c1.1 1.1 5.3 4.9 9.4 8.5 40.8 36.9 93.1 89 123 122.7 6.8 7.7 12.7 14.2 13 14.5s3.5 3.9 7.1 8 6.7 7.7 7 8 2.3 2.7 4.4 5.5c2.2 2.7 4.7 5.7 5.5 6.6.9.9 3 3.3 4.6 5.3 1.7 2.1 4 4.9 5.3 6.2 1.2 1.4 2.2 2.7 2.2 3.1 0 .3 2.5 3.5 5.5 7.2 10.1 12.1 23 28.5 29.5 37.4 3.6 4.9 9.9 13.5 14 19.1 10.1 13.6 38 54 38 55.1 0 .1 2.4 3.7 5.3 8 2.8 4.3 8 12.3 11.4 17.9 3.5 5.5 7.6 12.1 9.2 14.6 4 6.4 14 23.1 18.1 30.6 1.9 3.5 4.1 6.9 4.8 7.6.6.6 1.2 1.6 1.2 2 0 .5 1.9 4.1 4.1 8.1 4.4 7.7 6.5 11.6 14.8 27.2 3 5.5 6.6 12.2 8.1 15 6 10.8 14 26.6 20 39.5 3.4 7.4 8.7 18.6 11.6 24.7 3 6.2 5.4 11.6 5.4 12 0 .5 1.5 3.9 3.5 7.8 1.9 3.8 5.3 11.5 7.5 17s5.4 12.7 7 16 4.5 10.3 6.5 15.5c2.1 5.2 4 9.9 4.4 10.5.4.5 2 4.6 3.6 9s4.9 12.7 7.3 18.5 5.4 13.4 6.7 17c4.9 13.9 9.3 25.8 10.4 27.8.6 1.2 2 4.7 3 7.9 1.1 3.2 3.4 9.6 5.2 14.3 1.7 4.7 4.2 11.9 5.6 16 1.3 4.1 2.8 8.4 3.3 9.5 1.6 3.6 9.1 24.8 11 31 1 3.3 2.4 7.3 3 9 1.5 3.4 5 12.8 8.5 22.5 1.3 3.6 4 10.8 6 16s4.8 12.6 6.1 16.5c2.3 6.4 10.4 25.5 13.9 33 .8 1.6 2.6 5.9 4.1 9.5 3.3 8.1 10.7 23.3 21.2 43.4l4.6 8.8-3 2.7c-1.7 1.4-7.6 6.3-13.1 10.9-5.6 4.5-13.4 11.3-17.5 15-4 3.7-9.3 8.5-11.8 10.6-30.5 26.4-84 80.2-106.5 107.1-4.7 5.7-11.4 13.4-17.4 20-1.6 1.6-4.1 4.8-5.7 6.9-1.6 2.2-4 5.1-5.3 6.5-1.3 1.5-3.6 4.2-5 6.1-1.4 2-4.1 5.4-5.8 7.5-3.8 4.7-9.7 12.1-11.9 15-.8 1.1-2.6 3.3-4 5-1.4 1.6-3.9 5-5.6 7.5-1.8 2.5-3.4 4.7-3.8 5-.6.5-8.2 10.6-11.3 15-.9 1.4-3.3 4.5-5.1 7-1.9 2.5-6.1 8.3-9.3 13s-7.1 10.3-8.8 12.6c-7 9.6-35.3 52-38.6 58-.9 1.6-5.2 8.3-9.4 14.9-30.2 46.5-65.3 111.3-91.8 169.5-7.4 16.2-14.6 32-16 35-8.7 19.2-33.5 79.8-32.9 80.5.3.3.9.5 1.3.5.9 0 14.9-21 17.7-26.5 16-31.6 102.7-142.7 165.8-212.5 38.6-42.7 118.4-123.6 131.4-133.1 1.9-1.4 15.1-12.6 29.3-24.7 14.2-12.2 26.2-22.2 26.6-22.2.5 0 1.5-.7 2.2-1.7.8-.9 7-6 13.9-11.4s14.8-11.6 17.5-13.8c2.8-2.3 11.6-8.7 19.6-14.4 8-5.6 18.8-13.4 24-17.4 16.3-12.3 91.7-58.7 121.9-74.9 25.5-13.6 86-42.4 89.1-42.4.5 0 3.7-1.3 7.1-2.9 3.5-1.6 7.2-3.2 8.3-3.5 2.5-.9-.4-3.6-13.5-12.4-4.7-3.1-8.6-6-8.8-6.4s-2-1.7-4-3c-10.1-6.1-35.1-27.8-51.7-44.9-5.5-5.7-12-12.4-14.5-14.9-5.6-5.8-19.4-22.8-28.2-35-1.8-2.4-4.1-5.3-5.1-6.3-1.6-1.6-9.3-12.7-12.2-17.6-.5-.9-2.1-3.4-3.4-5.6-1.4-2.2-6.9-12.8-12.2-23.5s-11-21.3-12.5-23.5-3.1-5.6-3.6-7.5c-1.5-5.4-10.7-30.1-12.8-34-1-1.9-2.7-6.7-3.8-10.5-2.4-8.1-5.2-16.1-9.2-26-1.5-3.9-3-9-3.3-11.5-.6-4.1-2.5-10.2-8.7-27.5-1.2-3.3-2.8-10.7-3.6-16.5-1-7.8-2.2-12.1-4.4-16.5-1.7-3.3-3.3-8-3.6-10.5-.9-8.1-6.5-30-8-31.5-2.1-2-4.4-9.8-5.4-18.1-.8-6.3-6.5-28.8-9-35.4-.5-1.4-1.2-3.9-1.5-5.7-.3-1.7-2.1-8.4-4-15-1.9-6.5-4.8-16.5-6.4-22.3s-3.5-11.8-4.1-13.5c-.6-1.6-3.2-10-5.6-18.5-8.1-27.9-22.5-73.3-26.4-83-2.1-5.2-4.8-12.7-6.1-16.5-1.2-3.9-4.7-13.5-7.7-21.5s-7.1-19.2-9.2-25c-9.8-27.1-31.6-78.6-40.5-95.9-3-5.8-5.5-11.1-5.5-11.8 0-1.8-7.4-16.5-11.6-23.1-1.9-2.9-3.4-6.1-3.4-7.2 0-1-3.7-9-8.2-17.7s-10.3-20.3-13.1-25.7c-2.7-5.5-5.9-11.6-7.2-13.6-1.2-2-4.5-7.9-7.3-13.1-5.8-11.1-8.3-15.5-12.7-22.9-1.8-3-8.6-14.5-15.1-25.5-62-105-134.5-201.7-225.8-301.5-18-19.7-88.2-92.7-89.7-93.2-.4-.2-8.3-7.5-17.6-16.4-9.2-8.8-19.7-18.7-23.3-21.8-3.6-3.2-9.2-8.4-12.5-11.6-5.7-5.4-20.3-18.4-25.4-22.6-1.3-1-5.9-5.4-10.3-9.7-4.4-4.2-8.5-7.7-9-7.7s-2.9-1.9-5.1-4.3c-10.5-10.6-16.3-13.9-18.4-10.3M246 371.3c-1.4 6.6-9.4 70.6-11.7 93.7-2.2 21.9-2.4 79.2-.5 101 9.1 100.7 37.3 183.8 88.7 261 33 49.6 77.7 95.5 124.7 128.3 12.1 8.4 16.6 10.6 17.8 8.7.5-.8 6.6-18.4 13.5-39.1 10.2-30.4 12.5-38.1 11.6-39.7-.6-1.1-6.6-6.3-13.3-11.5-86.7-67.2-144.7-169.9-159.7-282.3-4.9-36.6-5.3-107.5-.6-112.2.5-.5 51.1 20.1 94.2 38.4 83 35.3 141.4 65.4 192 99.1 7.9 5.3 14.6 9.3 14.9 9 .8-.8 43.3-75.1 43.1-75.3-.3-.2-406.7-181.5-410.4-183l-3.2-1.4zm1672.5 48.1c-65.5 29.2-158.3 70.7-206.2 92.1-48 21.4-87.3 39.3-87.3 39.8 0 .7 37.1 65.3 41.6 72.4 1.4 2.2 1.6 2.2 20.7-10.6 55.2-36.8 82.6-50.4 211.9-105.2 56.7-24.1 70.5-29.6 71.3-28.7 1.3 1.3 2.4 50.7 1.5 69.8-6.2 131.7-65.6 247.5-168.3 328-7.7 6-10.6 8.9-10.2 10 .4.8 6.5 18.6 13.7 39.5s13.4 38.4 13.8 38.8c.8.9 12.4-6.7 28.5-18.8 85.8-64.6 147.7-154.9 179-260.9 20.8-70.7 28.1-153.2 20.5-232.1-3.4-35-10-85.6-11.4-87.2-.1-.1-53.7 23.8-119.1 53.1"/>
        <path d="M1141 649.2c-2.3 3.8-1.3.8-16.5 49.3-38 120.9-53.1 160.1-94.1 243.6-30.6 62.4-36.1 76.3-40.9 102.9-2.6 14.7-3.2 43.4-1 56 4.1 24.9 16.3 51.5 32.5 70.9 2.7 3.3 5 6.4 5 7 0 .5.4 1.1.8 1.3.4.1 3.4 4.2 6.6 9 16.6 25.1 23.5 71.1 16.7 110.8-3.2 18.4-11.6 51.1-15.1 58.6-1.7 3.8-4.7 10.6-6.6 15.1-3.3 7.9-6.1 13.1-13.1 24-1.8 2.9-3.3 5.5-3.3 5.8s-2.1 3.2-4.7 6.6c-2.7 3.3-5.5 7.1-6.3 8.2-7 10.1-10.7 11.1-18.6 5.3-2.3-1.7-7.3-5.4-11-8.1-7.2-5.3-24.9-20.9-29.5-26-9.9-10.9-22.1-27.2-25.2-33.6-10.4-21.7-13.7-29.4-14.2-33.2-.3-2.3-1.5-7.9-2.5-12.5-3.1-13.1-2.6-36.6 1.2-51.7 1.1-4.4 2.2-9 2.5-10.3.3-1.2.9-2.5 1.4-2.8s.9-1.2.9-2.1 2.1-5.6 4.6-10.5l4.5-9-4.3.7c-5.6.9-11.9 3.9-28.8 13.8-7.4 4.4-10.3 3.4-10.9-3.3-.1-1.9-.7-5.5-1.3-8-1.9-8.7-2.7-59.1-1.1-75 1.7-17.5 15.1-90.9 18.8-103.5 3.4-11.4 21.5-57.5 26.6-67.7 3.9-7.7 4.7-10.8 3-10.8-.5 0-1.6 1.1-2.5 2.5s-4 4.9-6.9 7.8c-12.2 12.1-26.7 27.7-30.5 32.8-4.8 6.4-16.8 21.9-18.1 23.5-.5.6-3 4.2-5.6 8s-5.6 8.2-6.8 9.8c-3.1 4-8.8 13.7-17.7 29.6-24.8 44.5-43.4 97.1-47 133.5-.5 4.9-1.5 13.7-2.2 19.5-3.6 31.8.2 86.7 8.2 118 2.3 9 10.8 35.1 11.9 36.5.5.5 1.8 3.6 2.9 6.7 6 16.1 22.6 43.4 39.6 64.8 6.7 8.6 28.9 30.7 38 38.1 3.3 2.7 7.2 6 8.6 7.3s4.3 3.6 6.5 5.2 4.9 3.7 5.9 4.6c1.1 1 2.5 1.8 3.2 1.8.6 0 1.4.6 1.7 1.3.2.7 6.5 5.3 13.8 10.2 37.5 25.1 54.5 41.4 68 64.8 2.3 3.9 4.7 7.9 5.4 8.7s2.4 4.8 3.9 8.8c3.3 9.3 5.3 13.2 6.9 13.2 10.9.4 252.9.4 262.2 0l12.9-.5 3.3-5.9c1.8-3.2 3.3-6.2 3.3-6.6 0-1.3 12.8-23 17.4-29.4 10.7-14.9 19.6-23.5 41.3-39.7 7.2-5.5 14.5-11.5 16.2-13.4s3.5-3.5 4.1-3.5c3.3 0 16-8.1 24.6-15.7 3.3-2.9 8.8-7.6 12.4-10.5 5.3-4.3 15.4-14 20.5-19.6.6-.6 2.9-2.8 5.3-4.8 2.3-2 6.6-6.7 9.4-10.3 2.9-3.6 6.5-8 8.1-9.6 1.7-1.7 4-4.6 5.3-6.5s3.1-4.6 4.1-6c5.4-8.1 9.3-14 9.3-14.5 0-.2 1.7-3.1 3.7-6.2 19.5-30.6 34.1-83.6 37.3-136 1.5-24.6-1.4-64.3-5.2-71.9-.9-1.6-1.6-5.4-1.6-8.4 0-20.3-15-66.6-34.2-105.5-13.5-27.4-25.4-46.4-44.7-71.5-15.3-19.9-17.4-22.3-30.2-36-6.4-6.9-13.9-14.9-16.5-17.8-4.2-4.5-7.6-6.6-7.6-4.6 0 .3 2.2 5.1 4.9 10.7 20.1 42 36.8 102.7 41.6 151.7.8 8.5 2 20.7 2.6 27 2 19.3-.8 68.8-4.2 76.7l-1.4 3.1-9-5.3c-8.4-5.1-28.9-14.5-31.4-14.5-.6 0 .4 3.1 2.4 6.9 14 27.9 17.3 61.5 9.1 91.4-3.7 13.4-13.5 36.5-17.1 40.3-.5.6-2.1 3.4-3.4 6.2-1.4 2.9-2.9 5.2-3.6 5.2-.6 0-3.2 2.8-5.8 6.2-5.3 6.9-17.2 19.4-23.8 25-2.4 2-6.6 5.5-9.4 7.8-2.7 2.4-5.7 4.9-6.5 5.7-.8.7-3.2 2.4-5.2 3.8-2.1 1.3-5.1 3.4-6.7 4.6-5 3.7-9.9 2.1-15.8-5.4-8.1-10.4-29.2-45.7-29.3-49.1 0-.4-1.3-3.6-2.9-7-5.4-11.7-14-44.7-17.3-66.6-1.6-10.5-1.7-52.3-.2-60 2.5-12.2 8-30.8 10.6-35.5 1.5-2.8 3.9-7.2 5.3-9.8 1.5-2.7 6.5-9.4 11.2-15 25.7-30.2 35.9-56.3 37-94.2 1.2-40.7-4.5-60.5-35-123.2-45-92.3-70.1-158.3-108.6-284.8-9.8-32.2-8.9-30.5-12.1-25.3"/>
        <path fill="#000001" d="M1145.3 907.7c6.5 14.9 65.5 157.1 66.1 159.5.8 3.6.9 3.6-13.8-2.1-6.9-2.7-12.8-4.6-13.1-4.3-1 1-.5 272.6.5 283.3 2.1 21.2 8.4 49.3 14.1 63.4.4 1.1 1.1 3.1 1.4 4.5.4 1.4 1.2 3.8 2 5.5.7 1.6 3.5 7.9 6.1 13.8 2.6 6 5.2 11.1 5.7 11.4s1.5 2 2.3 3.7 2.2 4.3 3.2 5.7c4.7 7.2 10.7 15.6 12.5 17.7l2.1 2.3-18.5 18.7c-26 26.3-36.8 39.1-43.4 51.6-8.9 16.9-14.7 29.1-16.9 35.2-1.3 3.8-4 11.4-6 16.9s-3.6 10.7-3.6 11.6c0 4.8-5.9 10.7-6.1 6.1-.1-3.3-.8-5.8-4.4-14.7-1.9-4.9-3.5-9.6-3.5-10.3s-.4-2-1-3c-.5-.9-1.9-4.6-3.1-8.2-8.4-26.3-23-47-58.5-83.2-10.1-10.3-18.4-19-18.4-19.4 0-1.4 14.6-27.1 16.7-29.3 2.9-3.3 13.7-26.9 18-39.6 11.9-35.4 14.6-79.1 14.7-237.5l.1-104.5-4.5.1c-2.5.1-7.5 1.4-11 2.9-11.4 4.8-12.3 4.9-11.6 1.5.3-1.6 10.5-26.2 22.7-54.7s26.4-62.6 31.6-75.8c11.5-29.5 13.6-34.5 14.4-34.5.4 0 1.8 2.6 3.2 5.7"/>
        <path d="M941 1666.6c.1 1.3 6.7 6.4 22.3 17.2 12.2 8.4 24.4 17.2 27 19.7s5 4.5 5.2 4.5c.7 0 9.5 9.7 15.7 17.3 3.2 3.9 8.1 11.7 10.8 17.2 9.6 19.3 10.1 33.8 2 49.9-2.2 4.4-3.7 8.3-3.3 8.7.5.4 7.6 3.7 15.8 7.4 16.7 7.5 22.7 10.7 33 17.4 6.7 4.4 23.4 19.3 26.4 23.6.8 1.1 1.7 2.2 2 2.5 2.2 1.9 7.9 9.9 8.5 11.7.9 3 0 2.9-11-.3-15.5-4.6-22.8-6.4-26.1-6.4-3.1 0-3.2.1-2.7 3.7 8.7 63.4 71 371.7 76.4 377.7.5.4 1.1 0 1.4-1 .8-2.6 29.9-146.2 32.6-160.4 4.5-24.8 9.2-48.9 11-56.5 1.1-4.4 3.1-14.8 4.5-23 1.4-8.3 3.4-18.4 4.5-22.5 1-4.1 3.7-18.5 6-32s5.4-30.1 7-37c4.1-17.5 7.8-36.4 8.6-43.9l.7-6.3-3.4.7c-1.9.3-9.5 2.4-16.9 4.5-18.7 5.3-19 5.4-19 3.4 0-8.6 31.8-39.4 47.3-45.8 2.1-.8 4.4-2.2 5.2-2.9.8-.8 8-4.3 16.1-7.8 8-3.5 14.8-6.9 15.1-7.6.3-.6-1.5-5.1-3.8-9.8-9-18.2-5.8-36.7 10.3-60.2 11-16 31.4-34.2 58.6-52.4 7.8-5.2 14.1-9.7 14.2-10 0-1-79.2-1.9-242.2-2.6-157-.6-159.8-.6-159.8 1.3"/>
    </g>
</svg>
