<svg xmlns="http://www.w3.org/2000/svg" viewBox="0 0 1024 1024" role="img" aria-label="OpenCoven monoline mark" color="#ffffff">
  <g transform="translate(0 0)"><path fill="none" stroke="currentColor" stroke-width="42" stroke-linejoin="round" stroke-linecap="round" d="M512 82c121 90 213 219 280 389 21 53 52 101 94 144-82-14-152-48-210-102-35-33-65-72-90-117-19 68-44 129-74 182-30-53-55-114-74-182-25 45-55 84-90 117-58 54-128 88-210 102 42-43 73-91 94-144C299 301 391 172 512 82Z"/>
  <path fill="none" stroke="currentColor" stroke-width="28" stroke-linejoin="round" stroke-linecap="round" opacity="0.72" d="M512 220c66 74 114 168 145 282-42-26-82-66-119-119-10 57-18 98-26 123-8-25-16-66-26-123-37 53-77 93-119 119 31-114 79-208 145-282Z"/>
  <path fill="none" stroke="currentColor" stroke-width="42" stroke-linejoin="round" stroke-linecap="round" d="M146 259l117 47-20 48-89-35c-17 58-10 111 21 158l-44 27c-48-74-43-158 15-245Zm732 0c58 87 63 171 15 245l-44-27c31-47 38-100 21-158l-89 35-20-48 117-47Z"/>
  <path fill="none" stroke="currentColor" stroke-width="42" stroke-linejoin="round" stroke-linecap="round" d="M512 314l76 177h-42v143h-68V491h-42l76-177Z"/>
  <path fill="none" stroke="currentColor" stroke-width="42" stroke-linejoin="round" stroke-linecap="round" d="M410 468c-34 47-44 103-30 166 13 56 46 101 99 136-24-58-27-112-10-162 13-39 34-74 63-105-46 10-84-2-122-35Zm204 0c34 47 44 103 30 166-13 56-46 101-99 136 24-58 27-112 10-162-13-39-34-74-63-105 46 10 84-2 122-35Z"/>
  <path fill="none" stroke="currentColor" stroke-width="42" stroke-linejoin="round" stroke-linecap="round" d="M397 760h230v48H397zM452 808h120l-34 73h-52l-34-73Zm60 52l46 108h-92l46-108Z"/>
  </g>
</svg>
